# xmcd CD database file
#
# Track frame offsets:
#	150
#	19322
#	33900
#	49362
#	61612
#	76087
#	93900
#	114152
#	129832
#	139537
#	150970
#	165885
#
# Disc length: 2393 seconds
#
# Revision: 7
# Processed by: cddbd v1.5.2PL0 Copyright (c) Steve Scherf et al.
# Submitted via: CDex 1.70beta2
#
DISCID=7909570c
DTITLE=Dr. John - Dr. John's Gumbo
DYEAR=1972
DGENRE=R&B
TTITLE0=Iko Iko
TTITLE1=Blow Wind Blow
TTITLE2=Big Chief
TTITLE3=Somebody Changed The Lock
TTITLE4=Mess Around
TTITLE5=Let The Good Times Roll
TTITLE6=Junko Partner
TTITLE7=Stack-A-Lee
TTITLE8=Tipitina
TTITLE9=Those Lonely Lonely Nights
TTITLE10=Huey Smith Medley
TTITLE11=Little Liza Jane
EXTD=YEAR: 1972
EXTT0=
EXTT1=
EXTT2=
EXTT3=
EXTT4=
EXTT5=
EXTT6=
EXTT7=
EXTT8=
EXTT9=
EXTT10=
EXTT11=
PLAYORDER=
